<svg xmlns="http://www.w3.org/2000/svg" width="100.075" height="85.43" viewBox="0 0 100.075 85.43">
  <path id="Union_1" data-name="Union 1" d="M55.783,84.43a18.352,18.352,0,0,1-16.993-11.5H31.525A25.6,25.6,0,0,1,20.2,70.282,26.4,26.4,0,0,1,9.531,72.73a19.582,19.582,0,0,1-6.417-1.06L0,70.594l2.393-2.267A20.853,20.853,0,0,0,8.421,58.235,25.192,25.192,0,0,1,5.985,47.389V25.54A25.568,25.568,0,0,1,31.524,0H59.382a25.569,25.569,0,0,1,25.54,25.54V35.4A18.327,18.327,0,0,1,93.494,50.89V66.073a18.087,18.087,0,0,1-1.658,7.593A13.938,13.938,0,0,0,95.8,80.18l2.393,2.268-3.114,1.077a14.219,14.219,0,0,1-4.654.769,18.8,18.8,0,0,1-7.4-1.641,18.421,18.421,0,0,1-7.884,1.777Zm0-4H75.137a14.38,14.38,0,0,0,6.873-1.751l.9-.491.923.44a15.432,15.432,0,0,0,6.592,1.664l.187,0a17.488,17.488,0,0,1-2.841-6.413l-.154-.7.324-.638a14.157,14.157,0,0,0,1.555-6.466V50.889a14.294,14.294,0,0,0-4.572-10.48v6.979a25.568,25.568,0,0,1-25.54,25.538H43.188A14.344,14.344,0,0,0,55.782,80.428ZM21.209,66.3a21.591,21.591,0,0,0,10.315,2.628H59.382a21.563,21.563,0,0,0,21.54-21.538V25.54A21.565,21.565,0,0,0,59.382,4H31.524A21.565,21.565,0,0,0,9.985,25.54V47.387a21.287,21.287,0,0,0,2.331,9.706l.323.638-.154.7A24.348,24.348,0,0,1,7.572,68.61a21.566,21.566,0,0,0,11.817-2.362l.923-.44Z" transform="translate(0.942 0.5)" fill="#00a2ff" stroke="rgba(112,112,112,0)" stroke-width="1"/>
  <g id="Subtraction_1" data-name="Subtraction 1" transform="translate(16.942 14.5)" fill="#8bd5ff">
    <path d="M30,43a15.166,15.166,0,0,1-10.607-4.247A14.167,14.167,0,0,1,15,28.5c0-.165,0-.333.009-.5H44.992c.006.184.009.347.009.5a14.166,14.166,0,0,1-4.394,10.254A15.166,15.166,0,0,1,30,43Z" stroke="none"/>
    <path d="M 30.00039672851563 41.99970245361328 C 33.74618530273438 41.99970245361328 37.26612854003906 40.5913200378418 39.91180801391602 38.03399276733398 C 42.42597198486328 35.60377883911133 43.863037109375 32.41235733032227 43.99111175537109 28.99990081787109 L 16.00967979431152 28.99990081787109 C 16.13774299621582 32.4124870300293 17.57468223571777 35.60391998291016 20.08862686157227 38.03401184082031 C 22.73414611816406 40.5913200378418 26.25421714782715 41.99970245361328 30.00039672851563 41.99970245361328 M 30.00039672851563 42.99970245361328 C 25.99349594116211 42.99970245361328 22.22659683227539 41.49153137207031 19.39360618591309 38.75300216674805 C 16.56053733825684 36.01443099975586 15.0002965927124 32.37297058105469 15.0002965927124 28.4994010925293 C 15.0002965927124 28.33470153808594 15.00326633453369 28.16665077209473 15.0090970993042 27.99990081787109 L 44.99169540405273 27.99990081787109 C 44.99801635742188 28.18368148803711 45.00049591064453 28.34664154052734 45.00049591064453 28.4994010925293 C 45.00049591064453 32.37284088134766 43.44011688232422 36.01430130004883 40.60680770874023 38.75300216674805 C 37.77366638183594 41.49153137207031 34.00690841674805 42.99970245361328 30.00039672851563 42.99970245361328 Z" stroke="none" fill="rgba(112,112,112,0)"/>
  </g>
  <g id="Rectangle_5" data-name="Rectangle 5" transform="translate(9.942 3.5)" fill="#00a2ff" stroke="rgba(112,112,112,0)" stroke-width="1">
    <rect width="75" height="67" rx="23" stroke="none"/>
    <rect x="0.5" y="0.5" width="74" height="66" rx="22.5" fill="none"/>
  </g>
  <path id="Path_12" data-name="Path 12" d="M167.611,92.069c-4.941,10.92-5.425,11.07-5.425,11.07h7.395l5.494-2.889Z" transform="translate(-154.058 -33.499)" fill="#00a2ff"/>
  <path id="Subtraction_2" data-name="Subtraction 2" d="M41.5,52a17.912,17.912,0,0,1-4.949-.685,15.616,15.616,0,0,1-4.2-1.892A11.021,11.021,0,0,1,27.467,43H55.533a11.021,11.021,0,0,1-4.886,6.423,15.617,15.617,0,0,1-4.2,1.892A17.912,17.912,0,0,1,41.5,52Z" transform="translate(4.942 6.5)" fill="#fff"/>
  <circle id="Ellipse_2" data-name="Ellipse 2" cx="5.5" cy="5.5" r="5.5" transform="translate(28.942 20.5)" fill="#fff"/>
  <circle id="Ellipse_3" data-name="Ellipse 3" cx="5.5" cy="5.5" r="5.5" transform="translate(51.942 20.5)" fill="#fff"/>
</svg>
